<?xml version="1.0" encoding="utf-8"?>
<!-- Generator: Adobe Illustrator 22.0.1, SVG Export Plug-In . SVG Version: 6.00 Build 0)  -->
<svg version="1.1" id="Calque_1" xmlns="http://www.w3.org/2000/svg" xmlns:xlink="http://www.w3.org/1999/xlink" x="0px" y="0px"
	 viewBox="0 0 150 150" style="enable-background:new 0 0 150 150;" xml:space="preserve">
<style type="text/css">
	.st0{fill:#FFFFFF;}
	.st1{fill:#757575;}
</style>
<path class="st0" d="M-70.5,140.8c74.8,0,149.6,0,224.4,0c0,3.2,0,6.5,0,9.7c-74.8,0-149.6,0-224.4,0
	C-70.5,147.2-70.5,144-70.5,140.8z M73.8,145.4c-0.1,0-0.3-0.1-0.4-0.1c0,0-0.1,0.1-0.1,0.1c0.1,0,0.3,0.1,0.4,0.1
	C73.7,145.5,73.7,145.4,73.8,145.4z"/>
<path class="st1" d="M33.3,130c-9.8,0-18.7,0-27.5,0c0-0.3,0-0.5,0-0.8c2.1-0.2,4.2-0.4,6.8-0.6c0-33.8,0-67.6,0-101.9
	c-2.7-0.2-5.3-0.4-7.9-0.6c0-0.3,0-0.7,0-1c8.7,0,17.4-0.2,26.1,0.2c1.2,0.1,3.2,3.2,3.2,5c0,10,0.2,20.1-1.2,29.9
	c-0.7,5.1-4.5,9.8-7.3,15.5c7.1,4.7,8.3,13.3,8.1,22.6C33.2,108.7,33.3,119,33.3,130z"/>
<path class="st1" d="M103.5,26.2c13.4-3.5,29.8,6.7,32.7,17.9c3.8,14.7-0.1,21.4-18.7,29.9c6.5,4.1,14.1,7.7,20.2,13.1
	c6.8,6,8.6,14.4,6,23.4c-3.6,12.4-17.6,20.1-36,18.7c11.5-2.3,14-9.5,14.4-18.2c0.2-4.5,0.7-9.1,0.4-13.6
	c-0.6-10.6-4.3-19.2-16.9-21.9c8.3-6.9,12.7-15.1,12.1-25.2C117.2,40.2,112.4,32.4,103.5,26.2z"/>
<path class="st1" d="M49.2,129.1c18-5.9,24.3-19.6,25-36.7c0.4-10.9,0.8-21.9-0.4-32.6C72,44.3,67.7,29.8,49.1,26
	C66,26.6,79,34.5,88.2,48c11.9,17.4,13.9,36.2,3.8,54.9C83.1,119.7,68.7,128.9,49.2,129.1z"/>
<path d="M73.8,145.4c0,0-0.1,0.1-0.1,0.1c-0.1,0-0.3-0.1-0.4-0.1c0,0,0.1-0.1,0.1-0.1C73.5,145.3,73.6,145.3,73.8,145.4z"/>
</svg>
